<svg width="18" height="19" viewBox="0 0 18 19" fill="none" xmlns="http://www.w3.org/2000/svg">
<path d="M9 2C7.035 2 5.4375 3.5975 5.4375 5.5625C5.4375 7.49 6.945 9.05 8.91 9.1175C8.97 9.11 9.03 9.11 9.075 9.1175C9.09 9.1175 9.0975 9.1175 9.1125 9.1175C9.12 9.1175 9.12 9.1175 9.1275 9.1175C11.0475 9.05 12.555 7.49 12.5625 5.5625C12.5625 3.5975 10.965 2 9 2Z" fill="#111113"/>
<path d="M12.8097 11.1125C10.7172 9.71753 7.30473 9.71753 5.19723 11.1125C4.24473 11.75 3.71973 12.6125 3.71973 13.535C3.71973 14.4575 4.24473 15.3125 5.18973 15.9425C6.23973 16.6475 7.61973 17 8.99973 17C10.3797 17 11.7597 16.6475 12.8097 15.9425C13.7547 15.305 14.2797 14.45 14.2797 13.52C14.2722 12.5975 13.7547 11.7425 12.8097 11.1125Z" fill="#111113"/>
</svg>
